<?xml version="1.0" encoding="UTF-8" standalone="no"?>
<!DOCTYPE svg PUBLIC "-//W3C//DTD SVG 1.1//EN" "http://www.w3.org/Graphics/SVG/1.1/DTD/svg11.dtd">
<svg width="100%" height="100%" viewBox="0 0 1080 1080" version="1.1" xmlns="http://www.w3.org/2000/svg" xmlns:xlink="http://www.w3.org/1999/xlink" xml:space="preserve" xmlns:serif="http://www.serif.com/" style="fill-rule:evenodd;clip-rule:evenodd;stroke-linejoin:round;stroke-miterlimit:2;">
    <g id="circle-vol-1circle" transform="matrix(1.01845,0,0,1.01845,540,540)">
        <g transform="matrix(1,0,0,1,-256,-256)">
            <g>
                <g>
                    <path d="M437.02,74.981C388.667,26.629 324.38,0 256,0C193.371,0 133.084,22.87 86.246,64.396C83.147,67.144 82.862,71.884 85.61,74.984C88.358,78.083 93.097,78.368 96.197,75.62C140.289,36.529 197.041,15 256,15C388.888,15 497,123.112 497,256C497,388.888 388.888,497 256,497C123.112,497 15,388.888 15,256C15,197.041 36.529,140.288 75.62,96.197C78.368,93.098 78.083,88.357 74.984,85.61C71.884,82.861 67.144,83.147 64.397,86.246C22.87,133.084 0,193.37 0,256C0,324.38 26.629,388.667 74.98,437.019C123.333,485.371 187.62,512 256,512C324.38,512 388.667,485.371 437.02,437.019C485.371,388.667 512,324.38 512,256C512,187.62 485.371,123.333 437.02,74.981Z" style="fill-rule:nonzero;"/>
                </g>
            </g>
        </g>
    </g>
    <g id="sound-waves" transform="matrix(1.41996,0,0,0.863465,540,540)">
        <g transform="matrix(1,0,0,1,-177,-177)">
            <clipPath id="_clip1">
                <rect x="0" y="0" width="354" height="354"/>
            </clipPath>
            <g clip-path="url(#_clip1)">
                <path d="M6.809,149.97C3.046,149.97 0,153.016 0,156.775L0,190.813C0,194.576 3.046,197.622 6.809,197.622C10.568,197.622 13.614,194.576 13.614,190.813L13.614,156.775C13.614,153.016 10.568,149.97 6.809,149.97Z" style="fill-rule:nonzero;"/>
                <path d="M40.87,122.094C37.111,122.094 34.061,125.145 34.061,128.904L34.061,223.157C34.061,226.919 37.111,229.966 40.87,229.966C44.63,229.966 47.68,226.919 47.68,223.157L47.68,128.904C47.68,125.145 44.63,122.094 40.87,122.094Z" style="fill-rule:nonzero;"/>
                <path d="M74.885,75.085C71.126,75.085 68.076,78.131 68.076,81.89L68.076,272.507C68.076,276.266 71.126,279.316 74.885,279.316C78.644,279.316 81.694,276.266 81.694,272.507L81.694,81.89C81.694,78.131 78.644,75.085 74.885,75.085Z" style="fill-rule:nonzero;"/>
                <path d="M108.923,109.123C105.164,109.123 102.114,112.169 102.114,115.932L102.114,231.66C102.114,235.419 105.164,238.469 108.923,238.469C112.682,238.469 115.732,235.419 115.732,231.66L115.732,115.932C115.732,112.169 112.682,109.123 108.923,109.123Z" style="fill-rule:nonzero;"/>
                <path d="M211.703,92.641C207.944,92.641 204.898,95.688 204.898,99.451L204.898,252.613C204.898,256.373 207.944,259.419 211.703,259.419C215.462,259.419 218.512,256.373 218.512,252.613L218.512,99.451C218.512,95.688 215.462,92.641 211.703,92.641Z" style="fill-rule:nonzero;"/>
                <path d="M279.117,102.314C275.358,102.314 272.307,105.364 272.307,109.123L272.307,245.275C272.307,249.037 275.358,252.084 279.117,252.084C282.876,252.084 285.922,249.037 285.922,245.275L285.922,109.123C285.922,105.364 282.876,102.314 279.117,102.314Z" style="fill-rule:nonzero;"/>
                <path d="M313.155,136.352C309.395,136.352 306.345,139.402 306.345,143.161L306.345,211.237C306.345,214.996 309.395,218.046 313.155,218.046C316.914,218.046 319.96,214.996 319.96,211.237L319.96,143.161C319.96,139.402 316.914,136.352 313.155,136.352Z" style="fill-rule:nonzero;"/>
                <path d="M245.079,47.852C241.316,47.852 238.269,50.902 238.269,54.661L238.269,299.736C238.269,303.499 241.316,306.545 245.079,306.545C248.838,306.545 251.884,303.499 251.884,299.736L251.884,54.661C251.884,50.902 248.838,47.852 245.079,47.852Z" style="fill-rule:nonzero;"/>
                <path d="M142.961,156.775C139.202,156.775 136.156,159.825 136.156,163.584L136.156,190.813C136.156,194.576 139.202,197.622 142.961,197.622C146.72,197.622 149.77,194.576 149.77,190.813L149.77,163.584C149.77,159.825 146.72,156.775 142.961,156.775Z" style="fill-rule:nonzero;"/>
                <path d="M347.192,154.496C343.433,154.496 340.383,157.543 340.383,161.302L340.383,190.759C340.383,194.518 343.433,197.568 347.192,197.568C350.952,197.568 354.002,194.518 354.002,190.759L354.002,161.302C354.002,157.543 350.952,154.496 347.192,154.496Z" style="fill-rule:nonzero;"/>
                <path d="M176.36,141.517C172.597,141.517 169.551,144.563 169.551,148.322L169.551,203.738C169.551,207.497 172.597,210.547 176.36,210.547C180.119,210.547 183.165,207.497 183.165,203.738L183.165,148.322C183.165,144.563 180.119,141.517 176.36,141.517Z" style="fill-rule:nonzero;"/>
            </g>
        </g>
    </g>
</svg>
